<?xml version="1.0" encoding="utf-8"?>
<!-- Generator: Adobe Illustrator 17.1.0, SVG Export Plug-In . SVG Version: 6.00 Build 0)  -->
<!DOCTYPE svg PUBLIC "-//W3C//DTD SVG 1.1//EN" "http://www.w3.org/Graphics/SVG/1.1/DTD/svg11.dtd">
<svg version="1.1" id="Layer_1" xmlns="http://www.w3.org/2000/svg" xmlns:xlink="http://www.w3.org/1999/xlink" x="0px" y="0px"
	 viewBox="0 0 56.7 56.7" enable-background="new 0 0 56.7 56.7" xml:space="preserve">
<g>
	<path fill="#969696" d="M52.5,25.1c0-4.3-3.2-7.8-7.1-7.8C40.1,17.1,34.7,17,29.2,17c-0.3,0-0.6,0-0.9,0s-0.6,0-0.9,0
		c-5.5,0-10.9,0.1-16.2,0.3c-3.9,0-7.1,3.5-7.1,7.8c-0.2,3.4-0.3,6.8-0.3,10.2c0,3.4,0.1,6.8,0.3,10.2c0,4.3,3.2,7.8,7.1,7.8
		c5.6,0.3,11.3,0.4,17.1,0.4c5.8,0,11.5-0.1,17.1-0.4c3.9,0,7.1-3.5,7.1-7.8c0.2-3.4,0.3-6.8,0.3-10.2
		C52.9,31.9,52.8,28.5,52.5,25.1z M23.7,44.7V25.9l13.9,9.4L23.7,44.7z"/>
</g>
</svg>
