<?xml version="1.0" encoding="utf-8"?>
<!-- Generator: Adobe Illustrator 18.0.0, SVG Export Plug-In . SVG Version: 6.00 Build 0)  -->
<!DOCTYPE svg PUBLIC "-//W3C//DTD SVG 1.1//EN" "http://www.w3.org/Graphics/SVG/1.1/DTD/svg11.dtd">
<svg version="1.1" id="Logo" xmlns="http://www.w3.org/2000/svg" xmlns:xlink="http://www.w3.org/1999/xlink" x="0px" y="0px"
	 viewBox="3.3 571 612.1 144" enable-background="new 3.3 571 612.1 144" xml:space="preserve">
<g>
	<path fill="#19A9E5" d="M343.6,577.7c-0.8-1.1-2.2-1.3-3.3-0.6L315,594.8c-0.7,0.4-1.6,0.8-2.4,0.8l0,0c-0.9,0-1.8-0.3-2.4-0.8
		L285,577.1c-1.1-0.8-2.6-0.4-3.3,0.6c-0.3,0.4-0.4,0.9-0.4,1.3v37.8l0,0l0,0c0,1.3,1.1,2.4,2.4,2.4l0,0l0,0H342
		c1.3,0,2.4-1.1,2.4-2.4V579C344,578.6,343.9,578.1,343.6,577.7z"/>
	<path fill="#72D0EB" d="M283.4,619.3L283.4,619.3L283.4,619.3h58.2c1.3,0,2.4-1.1,2.4-2.4v-37.8c0-0.4-0.1-0.9-0.4-1.3
		c-0.8-1.1-2.2-1.3-3.3-0.6l-58.7,41.2C281.8,618.8,282.5,619.3,283.4,619.3z"/>
	<g>
		<path fill="#2E343D" d="M255,639.4c-2.8,0-5,0.6-5,3.2v2.6c0,2.6,2.2,3.3,5,3.3s5-0.7,5-3.3v-2.6C260,640.1,257.9,639.4,255,639.4
			z"/>
		<path fill="#2E343D" d="M257.1,653.6h-4c-1.3,0-2.4,1.1-2.4,2.4v34.3c0,1.3,1.1,2.4,2.4,2.4h4c1.3,0,2.4-1.1,2.4-2.4V656
			C259.5,654.6,258.4,653.6,257.1,653.6z"/>
		<path fill="#2E343D" d="M140.6,653.2c-5.8,0-9.9,2.6-12.9,6.6c-2-4-6-6.6-11.5-6.6c-5.9,0-9.2,3.2-11.7,6.6V656
			c0-1.3-1.1-2.4-2.4-2.4h-4c-1.3,0-2.4,1.1-2.4,2.4v34.2c0,1.3,1.1,2.4,2.4,2.4h4c1.3,0,2.4-1.1,2.4-2.4v-19.6
			c0-5.9,3.3-9.5,8.2-9.5s7.8,3.3,7.8,9.3v19.8c0,1.3,1.1,2.4,2.4,2.4h4c1.3,0,2.4-1.1,2.4-2.4v-19.6c0-6.1,3.4-9.5,8.2-9.5
			c4.9,0,7.8,3.2,7.8,9.3v19.7c0,1.3,1.1,2.4,2.4,2.4h4c1.3,0,2.4-1.1,2.4-2.4v-22.5C153.9,658.5,148.9,653.2,140.6,653.2z"/>
		<path fill="#2E343D" d="M511.1,639.4c-2.8,0-5,0.6-5,3.2v2.6c0,2.6,2.2,3.3,5,3.3c2.8,0,5-0.7,5-3.3v-2.6
			C516.1,640.1,513.9,639.4,511.1,639.4z"/>
		<path fill="#2E343D" d="M513.1,653.6h-4c-1.3,0-2.4,1.1-2.4,2.4v34.3c0,1.3,1.1,2.4,2.4,2.4h4c1.3,0,2.4-1.1,2.4-2.4V656
			C515.5,654.6,514.4,653.6,513.1,653.6z"/>
		<path fill="#2E343D" d="M29.5,649.6c3.8,0,7.5,1.2,10.5,3.6c0.4,0.3,0.9,0.4,1.4,0.4s1.2-0.2,1.7-0.7l3.1-3.1
			c0.4-0.4,0.7-1.1,0.7-1.8s-0.3-1.2-0.9-1.7c-4.7-3.8-10.3-5.7-16.4-5.7c-14.5,0-26.3,11.8-26.3,26.3c0,14.5,11.8,26.3,26.3,26.3
			c6,0,11.7-2,16.4-5.7c0.6-0.4,0.8-1,0.9-1.7c0-0.7-0.2-1.3-0.7-1.8l-3.1-3.1c-0.4-0.4-1-0.7-1.7-0.7c-0.6,0-1,0.1-1.4,0.4
			c-3,2.3-6.7,3.6-10.5,3.6c-9.6,0-17.4-7.8-17.4-17.4C12.1,657.4,19.9,649.6,29.5,649.6z"/>
		<path fill="#2E343D" d="M301,653.6h-4c-1.3,0-2.4,1.1-2.4,2.4v3.9c-2.8-4-6.8-6.6-13-6.6c-9,0-17.8,7.1-17.8,19.9v0.1
			c0,12.7,8.7,19.9,17.8,19.9c6.3,0,10.3-2.9,13-6.5l0.1-0.1v3.6c0,6.6-5.1,12.7-12.2,12.7c-4.3,0-8.3-2-10.3-5.5
			c-0.7-1.1-2.1-1.4-3.2-0.8l-1.7,1.1c-1.1,0.7-1.4,2.1-0.8,3.3c3.3,5.3,9.1,9,16.6,9c12.7,0,20.6-9.1,20.6-19.9v-33.9
			C303.4,654.6,302.3,653.6,301,653.6z M293.8,673.3c0,7.3-5,12.2-10.8,12.2s-10.3-4.7-10.3-12.2v-0.1c0-7.3,4.7-12.2,10.3-12.2
			c5.8,0,10.8,4.9,10.8,12.2V673.3z"/>
		<path fill="#2E343D" d="M486.9,653.3c-6,0-9.5,3-12,6.6v-3.8c0-1.3-1.1-2.4-2.4-2.4h-4c-1.3,0-2.4,1.1-2.4,2.4v34.3
			c0,1.3,1.1,2.4,2.4,2.4h4c1.3,0,2.4-1.1,2.4-2.8v-20.7c0-4.7,3.8-8.5,8.5-8.5c4.7,0,8.5,3.8,8.5,8.5v21c0,1.3,1.1,2.4,2.4,2.4h4
			c1.3,0,2.4-1.1,2.4-2.4v-22.4C500.5,659.1,495.5,653.3,486.9,653.3z"/>
		<path fill="#2E343D" d="M330.3,653.3c-6,0-9.5,3-12,6.6v-3.8c0-1.3-1.1-2.4-2.4-2.4h-4c-1.3,0-2.4,1.1-2.4,2.4v34.3
			c0,1.3,1.1,2.4,2.4,2.4h4c1.3,0,2.4-1.1,2.4-2.8v-20.7c0-4.7,3.8-8.5,8.5-8.5s8.5,3.8,8.5,8.5v21c0,1.3,1.1,2.4,2.4,2.4h4
			c1.3,0,2.4-1.1,2.4-2.4v-22.4C344,659.1,339,653.3,330.3,653.3z"/>
		<path fill="#2E343D" d="M614.3,653.8c-0.1,0-0.2-0.1-0.2-0.1c-0.1,0-0.2,0-0.3-0.1c-0.8-0.2-1.7-0.3-2.6-0.3
			c-4.6,0-8.6,2.7-10.3,6.6v-3.8c0-1.3-1.1-2.4-2.4-2.4h-4c-1.3,0-2.4,1.1-2.4,2.4v34.1c0,1.3,1.1,2.4,2.4,2.4h4
			c1.3,0,2.4-1.1,2.4-2.4v-14.5c0-11.7,6.1-13.8,9.7-13.6c0.7,0.1,1.3,0.1,1.8,0.2c0,0,0.2,0,0.3,0h0.1c0.8,0,1.6-0.6,1.7-1.3
			l0.9-5.7c0-0.1,0-0.2,0-0.2C615.3,654.5,614.9,654,614.3,653.8z"/>
		<path fill="#2E343D" d="M441.3,653.3c-11.8,0-20.4,8.9-20.4,19.9v0.1v0.1c0,10.9,8.7,19.9,20.4,19.9s20.4-8.9,20.4-19.9v-0.1v-0.1
			C461.8,662.2,453.1,653.3,441.3,653.3z M452.8,673.2v0.1c0,6.7-4.7,12.1-11.5,12.2c-6.8-0.1-11.5-5.5-11.5-12.2v-0.1v-0.1
			c0-6.7,4.7-12.1,11.5-12.2C448.1,661,452.8,666.4,452.8,673.2L452.8,673.2z"/>
		<path fill="#2E343D" d="M567.1,653.3c-11.8,0-20.4,8.9-20.4,19.9v0.1v0.1c0,10.9,8.7,19.9,20.4,19.9s20.4-8.9,20.4-19.9v-0.1v-0.1
			C587.5,662.2,578.8,653.3,567.1,653.3z M578.6,673.2v0.1c0,6.7-4.7,12.1-11.5,12.2c-6.8-0.1-11.5-5.5-11.5-12.2v-0.1v-0.1
			c0-6.7,4.7-12.1,11.5-12.2C573.9,661,578.6,666.4,578.6,673.2L578.6,673.2z"/>
		<path fill="#2E343D" d="M414.1,641.3h-4c-0.8,0-1.4,0.3-1.9,1l-16.6,22.5l-16.5-22.6c-0.4-0.6-1.1-1-1.9-1h-4
			c-1.3,0-2.4,1.1-2.4,2.4v46.6c0,1.3,1.1,2.4,2.4,2.4h4c1.3,0,2.4-1.1,2.4-2.4v-32.4l14.6,18.7l0,0l0.1,0.1l0,0
			c0.3,0.3,0.8,0.6,1.3,0.6c0.6,0,1-0.2,1.3-0.6l0,0l0.1-0.1l0,0l14.6-18.7v32.4c0,1.3,1.1,2.4,2.4,2.4h4c1.3,0,2.4-1.1,2.4-2.4
			v-46.7C416.4,642.3,415.3,641.3,414.1,641.3z"/>
		<path fill="#2E343D" d="M391.6,677.4L391.6,677.4L391.6,677.4z"/>
		<path fill="#2E343D" d="M182,653.3c-6.2,0-10.2,2.6-13,6.6v-3.8c0-1.3-1.1-2.4-2.4-2.4h-4c-1.3,0-2.4,1.1-2.4,2.4v50.3
			c0,1.3,1.1,2.4,2.4,2.4h4c1.3,0,2.4-1.1,2.4-2.4v-19.8c2.7,3.6,6.7,6.6,13,6.6c9.1,0,17.8-7.2,17.8-19.9v-0.1
			C199.7,660.3,191,653.3,182,653.3z M190.8,673.3c0,7.3-5,12.2-10.8,12.2s-10.3-4.7-10.3-12.2v-0.1c0-7.3,4.7-12.2,10.3-12.2
			s10.8,4.9,10.8,12.2V673.3z"/>
		<path fill="#2E343D" d="M90,686.5L90,686.5L90,686.5c-0.9,0-1.7-0.8-1.7-1.7V656c0-1.3-1.1-2.4-2.4-2.4h-4c-1.3,0-2.4,1.1-2.4,2.4
			v3.8c-2.8-4-6.8-6.6-13-6.6c-9,0-17.8,7.1-17.8,19.9v0.1c0,12.7,8.7,19.9,17.8,19.9c6.6,0,11.2-3,13.2-6.6c1,3.6,4.2,6.1,8.1,6.1
			l0,0H90c0.9,0,1.7-0.8,1.7-1.7v-2.7C91.6,687.2,90.9,686.5,90,686.5z M78.6,673.3c0,7.3-5,12.2-10.8,12.2s-10.3-4.7-10.3-12.2
			v-0.1c0-7.3,4.7-12.2,10.3-12.2c5.8,0,10.8,4.9,10.8,12.2V673.3z"/>
		<path fill="#2E343D" d="M244.8,686.5L244.8,686.5L244.8,686.5c-0.9,0-1.7-0.8-1.7-1.7V656c0-1.3-1.1-2.4-2.4-2.4h-4
			c-1.3,0-2.4,1.1-2.4,2.4v3.8c-2.8-4-6.8-6.6-13-6.6c-9,0-17.8,7.1-17.8,19.9v0.1c0,12.7,8.7,19.9,17.8,19.9c6.6,0,11.2-3,13.2-6.6
			c1,3.6,4.2,6.1,8.1,6.1l0,0h2.2c0.9,0,1.7-0.8,1.7-1.7v-2.7C246.5,687.2,245.8,686.5,244.8,686.5z M233.6,673.3
			c0,7.3-5,12.2-10.8,12.2s-10.3-4.7-10.3-12.2v-0.1c0-7.3,4.7-12.2,10.3-12.2c5.7,0,10.8,4.9,10.8,12.2V673.3z"/>
		<path fill="#2E343D" d="M542.3,653.6H534v-10.7l0,0c0-0.3-0.1-0.7-0.3-1c-0.6-0.8-1.6-1-2.3-0.4l0,0l-4.1,2.9
			c-1.2,0.8-1.9,2.1-1.9,3.7v5.5h-2.8c-1.3,0-2.4,1.1-2.4,2.4v2.4c0,1.3,1.1,2.4,2.4,2.4h2.8v21.1c0,8.5,4.6,11.2,11,11.2
			c3.4,0,6.9-1.3,6.9-1.3s1.2-0.3,0.9-1.8c-0.1-0.4-0.7-3.8-0.7-3.8c-0.1-0.8-0.4-1.4-1.7-1.2c-0.6,0.1-1.7,0.2-3.1,0.2
			c-3,0-4.7-1.3-4.7-4.8v-19.7h8.3c1.3,0,2.4-1.1,2.4-2.4v-2.4C544.8,654.6,543.7,653.6,542.3,653.6z"/>
	</g>
</g>
</svg>
