<?xml version="1.0" encoding="utf-8"?>
<!-- Generator: Adobe Illustrator 18.0.0, SVG Export Plug-In . SVG Version: 6.00 Build 0)  -->
<!DOCTYPE svg PUBLIC "-//W3C//DTD SVG 1.1//EN" "http://www.w3.org/Graphics/SVG/1.1/DTD/svg11.dtd">
<svg version="1.1" id="Layer_1" xmlns="http://www.w3.org/2000/svg" xmlns:xlink="http://www.w3.org/1999/xlink" x="0px" y="0px"
	 viewBox="0 0 398.8 98.8" enable-background="new 0 0 398.8 98.8" xml:space="preserve">
<path fill-rule="evenodd" clip-rule="evenodd" fill="#1D1D1B" d="M95.9,49.3c0,25.7-20.8,46.5-46.5,46.5C23.7,95.8,2.9,75,2.9,49.3
	c0-25.7,20.8-46.5,46.5-46.5C75.1,2.8,95.9,23.6,95.9,49.3"/>
<g>
	<path fill="#1D1D1B" d="M115.4,40.1c0.7,0,1.1,0.4,1.1,1.1v16.8c0,0.7,0.4,1.1,1.1,1.1h8c0.7,0,1.1,0.4,1.1,1.1v4
		c0,0.7-0.4,1.1-1.1,1.1h-14.2c-0.7,0-1.1-0.4-1.1-1.1v-23c0-0.7,0.4-1.1,1.1-1.1H115.4z"/>
	<path fill="#1D1D1B" d="M134,40.1c0.7,0,1.1,0.4,1.1,1.1v23c0,0.7-0.4,1.1-1.1,1.1h-4c-0.7,0-1.1-0.4-1.1-1.1v-23
		c0-0.7,0.4-1.1,1.1-1.1H134z"/>
	<path fill="#1D1D1B" d="M144.4,47.4c0-0.7-0.4-1.1-1.1-1.1h-5c-0.7,0-1.1-0.4-1.1-1.1v-4c0-0.7,0.4-1.1,1.1-1.1h18.4
		c0.7,0,1.1,0.4,1.1,1.1v4c0,0.7-0.4,1.1-1.1,1.1h-5c-0.7,0-1.1,0.4-1.1,1.1v16.8c0,0.7-0.4,1.1-1.1,1.1h-4c-0.7,0-1.1-0.4-1.1-1.1
		V47.4z"/>
	<path fill="#1D1D1B" d="M166.4,47.4c0-0.7-0.4-1.1-1.1-1.1h-5c-0.7,0-1.1-0.4-1.1-1.1v-4c0-0.7,0.4-1.1,1.1-1.1h18.4
		c0.7,0,1.1,0.4,1.1,1.1v4c0,0.7-0.4,1.1-1.1,1.1h-5c-0.7,0-1.1,0.4-1.1,1.1v16.8c0,0.7-0.4,1.1-1.1,1.1h-4c-0.7,0-1.1-0.4-1.1-1.1
		V47.4z"/>
	<path fill="#1D1D1B" d="M187.1,40.1c0.7,0,1.1,0.4,1.1,1.1v16.8c0,0.7,0.4,1.1,1.1,1.1h8c0.7,0,1.1,0.4,1.1,1.1v4
		c0,0.7-0.4,1.1-1.1,1.1h-14.2c-0.7,0-1.1-0.4-1.1-1.1v-23c0-0.7,0.4-1.1,1.1-1.1H187.1z"/>
	<path fill="#1D1D1B" d="M216.8,40.1c0.7,0,1.1,0.4,1.1,1.1v4c0,0.7-0.4,1.1-1.1,1.1h-8.7c-0.7,0-1.1,0.4-1.1,1.1v1.2
		c0,0.7,0.4,1.1,1.1,1.1h5.6c0.7,0,1.1,0.4,1.1,1.1v4c0,0.7-0.4,1.1-1.1,1.1h-5.6c-0.7,0-1.1,0.4-1.1,1.1v1.2c0,0.7,0.4,1.1,1.1,1.1
		h8.7c0.7,0,1.1,0.4,1.1,1.1v4c0,0.7-0.4,1.1-1.1,1.1h-15.1c-0.7,0-1.1-0.4-1.1-1.1v-23c0-0.7,0.4-1.1,1.1-1.1H216.8z"/>
	<path fill="#1D1D1B" d="M237.2,47.4c0-0.7-0.4-1.1-1.1-1.1h-5c-0.7,0-1.1-0.4-1.1-1.1v-4c0-0.7,0.4-1.1,1.1-1.1h18.4
		c0.7,0,1.1,0.4,1.1,1.1v4c0,0.7-0.4,1.1-1.1,1.1h-5c-0.7,0-1.1,0.4-1.1,1.1v16.8c0,0.7-0.4,1.1-1.1,1.1h-4c-0.7,0-1.1-0.4-1.1-1.1
		V47.4z"/>
	<path fill="#1D1D1B" d="M257.9,40.1c0.7,0,1.1,0.4,1.1,1.1v9c0,0.7,0.4,1.1,1.1,1.1h3.5c0.7,0,1.1-0.4,1.1-1.1v-9
		c0-0.7,0.4-1.1,1.1-1.1h4c0.7,0,1.1,0.4,1.1,1.1v23c0,0.7-0.4,1.1-1.1,1.1h-4c-0.7,0-1.1-0.4-1.1-1.1v-5.7c0-0.7-0.4-1.1-1.1-1.1
		H260c-0.7,0-1.1,0.4-1.1,1.1v5.7c0,0.7-0.4,1.1-1.1,1.1h-4c-0.7,0-1.1-0.4-1.1-1.1v-23c0-0.7,0.4-1.1,1.1-1.1H257.9z"/>
	<path fill="#1D1D1B" d="M279.2,40.1c0.7,0,1.1,0.4,1.1,1.1v14.1c0,2.8,0.2,4.5,2.8,4.5c2.7,0,2.8-1.7,2.8-4.5V41.2
		c0-0.7,0.4-1.1,1.1-1.1h4c0.7,0,1.1,0.4,1.1,1.1v16c0,2.4-0.5,8.7-9,8.7c-8.5,0-9-6.4-9-8.7v-16c0-0.7,0.4-1.1,1.1-1.1H279.2z"/>
	<path fill="#1D1D1B" d="M302,40.1c0.6,0,1,0.3,1.3,0.8l4.9,12c0.1,0.3,0.4,0.3,0.4-0.1V41.2c0-0.7,0.4-1.1,1.1-1.1h4
		c0.7,0,1.1,0.4,1.1,1.1v23c0,0.7-0.4,1.1-1.1,1.1h-5.3c-0.6,0-1-0.3-1.3-0.8l-4.9-12c-0.1-0.3-0.4-0.3-0.4,0.1v11.6
		c0,0.7-0.4,1.1-1.1,1.1h-4c-0.7,0-1.1-0.4-1.1-1.1v-23c0-0.7,0.4-1.1,1.1-1.1H302z"/>
	<path fill="#1D1D1B" d="M327.4,40.1c6.8,0,9,2.7,9,8.6v7.9c0,5.9-2.2,8.7-9,8.7h-8c-0.7,0-1.1-0.4-1.1-1.1v-23
		c0-0.7,0.4-1.1,1.1-1.1H327.4z M327.6,59.1c1.7,0,2.6-0.3,2.6-2.4c0,0,0-7.9,0-7.9c0-2.2-0.9-2.4-2.6-2.4h-1.9
		c-0.7,0-1.1,0.4-1.1,1.1v10.7c0,0.7,0.4,1.1,1.1,1.1H327.6z"/>
	<path fill="#1D1D1B" d="M355.9,40.1c0.7,0,1.1,0.4,1.1,1.1v4c0,0.7-0.4,1.1-1.1,1.1h-8.7c-0.7,0-1.1,0.4-1.1,1.1v1.2
		c0,0.7,0.4,1.1,1.1,1.1h5.6c0.7,0,1.1,0.4,1.1,1.1v4c0,0.7-0.4,1.1-1.1,1.1h-5.6c-0.7,0-1.1,0.4-1.1,1.1v1.2c0,0.7,0.4,1.1,1.1,1.1
		h8.7c0.7,0,1.1,0.4,1.1,1.1v4c0,0.7-0.4,1.1-1.1,1.1h-15.1c-0.7,0-1.1-0.4-1.1-1.1v-23c0-0.7,0.4-1.1,1.1-1.1H355.9z"/>
	<path fill="#1D1D1B" d="M378.7,63.4c0.5,0.9-0.1,1.9-1.2,1.9h-4.1c-0.4,0-0.7-0.2-0.8-0.5l-3.7-7.2c-0.1-0.1-0.2-0.2-0.3-0.2h-1.4
		c-0.6,0-1.1,0.5-1.1,1.1v5.7c0,0.6-0.5,1.1-1.1,1.1h-4c-0.6,0-1.1-0.5-1.1-1.1v-23c0-0.6,0.5-1.1,1.1-1.1h7.9c6.4,0,9,2.7,9,8.6
		c0,3.3-0.8,5.7-2.7,7.1c-0.1,0.1-0.2,0.3-0.1,0.5L378.7,63.4z M367.1,46.3c-0.6,0-1.1,0.5-1.1,1.1v2.7c0,0.6,0.5,1.1,1.1,1.1h1.8
		c1.7,0,2.6-0.2,2.6-2.4c0-2.2-0.9-2.4-2.6-2.4H367.1z"/>
</g>
<path fill-rule="evenodd" clip-rule="evenodd" fill="#FFFFFF" d="M78.7,60.3c-1.6,1.6-3.5,2.4-5.7,2.5l-2.2,0c-0.3,0-0.4,0-0.5,0
	c-0.2,0-0.4,0-0.5,0l-38.8,0c-3.7,0-6.8-1.4-9.5-4c-2.6-2.6-4-5.8-4-9.6c0-3.8,1.3-7,4-9.6c2.6-2.6,5.8-4,9.6-4
	c0.9,0,1.7,0.1,2.5,0.2c0.1,0,0.1,0,0.2,0c0.9,0.2,1.8,0.4,2.6,0.8c0.2-0.3,0.3-0.6,0.5-0.8c0.1-0.1,0.1-0.2,0.2-0.3
	c0.7-1.1,1.5-2.1,2.5-3c3.5-3.5,7.6-5.2,12.5-5.2c4.9,0,9.1,1.7,12.5,5.2c3.5,3.5,5.2,7.6,5.2,12.5c0,0,0,0.1,0,0.1
	c0,0.1,0,0.2,0,0.3c0,0.1,0,0.2,0,0.4c0.7-0.2,1.4-0.3,2.2-0.4c0.1,0,0.3,0,0.4,0c2.4,0,4.4,0.8,6.1,2.5c1.7,1.7,2.5,3.7,2.5,6.1
	C81.2,56.5,80.3,58.6,78.7,60.3z M69.8,62.8l1,0"/>
<polygon fill-rule="evenodd" clip-rule="evenodd" fill="#FFFFFF" points="44,75.7 47.4,75.7 45.2,83.2 46.1,83.3 53.1,72 49,72 
	51.3,66.5 47.1,66.5 "/>
<g>
	<path fill-rule="evenodd" clip-rule="evenodd" fill="#FFFFFF" d="M40.3,44.6c0.1-0.6,0.4-1.1,0.9-1.5c0.7-0.7,1.5-1,2.4-1
		s1.7,0.3,2.4,1c0.5,0.5,0.8,1,0.9,1.5"/>
	<path fill="#000100" d="M46.8,45.9c-0.6,0-1.1-0.4-1.2-1c-0.1-0.3-0.3-0.7-0.6-0.9c-0.4-0.4-0.9-0.6-1.5-0.6
		c-0.6,0-1.1,0.2-1.5,0.6c-0.3,0.3-0.5,0.6-0.5,1c-0.2,0.7-0.8,1.1-1.5,0.9c-0.7-0.2-1.1-0.8-0.9-1.5c0.2-0.8,0.6-1.5,1.2-2.1
		c0.9-0.9,2-1.4,3.3-1.4c1.3,0,2.4,0.5,3.3,1.4c0.6,0.6,1,1.3,1.2,2.1c0.2,0.7-0.3,1.3-0.9,1.5C47,45.9,46.9,45.9,46.8,45.9z"/>
</g>
<g>
	<path fill-rule="evenodd" clip-rule="evenodd" fill="#FFFFFF" d="M50.7,44.6c0.1-0.6,0.4-1.1,0.9-1.5c0.7-0.7,1.5-1,2.4-1
		c0.9,0,1.7,0.3,2.4,1c0.5,0.5,0.8,1,0.9,1.5"/>
	<path fill="#000100" d="M57.2,45.9c-0.6,0-1.1-0.4-1.2-1c-0.1-0.3-0.3-0.7-0.6-0.9c-0.4-0.4-0.9-0.6-1.5-0.6
		c-0.6,0-1.1,0.2-1.5,0.6c-0.3,0.3-0.5,0.6-0.6,1c-0.2,0.7-0.8,1.1-1.5,0.9c-0.7-0.2-1.1-0.8-0.9-1.5c0.2-0.8,0.6-1.5,1.2-2.1
		c0.9-0.9,2-1.4,3.3-1.4c1.3,0,2.4,0.5,3.3,1.4c0.6,0.6,1,1.3,1.2,2.1c0.2,0.7-0.3,1.3-0.9,1.5C57.4,45.9,57.3,45.9,57.2,45.9z"/>
</g>
<g>
	<path fill-rule="evenodd" clip-rule="evenodd" fill="#FFFFFF" d="M53,50.8c-0.2,0.7-0.5,1.4-1.1,1.9c-0.8,0.8-1.8,1.2-3,1.2
		c-1.2,0-2.2-0.4-3-1.2c-0.6-0.6-0.9-1.2-1.1-1.9"/>
	<path fill="#000100" d="M48.9,55.2c-1.5,0-2.8-0.5-3.9-1.6c-0.7-0.7-1.2-1.6-1.4-2.5c-0.2-0.7,0.3-1.3,0.9-1.5
		c0.7-0.2,1.3,0.3,1.5,0.9c0.1,0.5,0.4,0.9,0.8,1.3c0.6,0.6,1.3,0.9,2.1,0.9c0.8,0,1.5-0.3,2.1-0.9c0.4-0.4,0.7-0.8,0.8-1.3
		c0.2-0.7,0.8-1.1,1.5-0.9c0.7,0.2,1.1,0.8,0.9,1.5c-0.2,1-0.7,1.8-1.5,2.5C51.7,54.6,50.4,55.2,48.9,55.2z"/>
</g>
<g>
	<path fill="#1D1D1B" d="M383.6,42.9c0-0.7,0.1-2.4,2.5-2.4c2.1,0,2.5,1.4,2.5,2.2c0,0.1-0.1,0.2-0.2,0.3l-1.1,0.2
		c-0.2,0-0.4-0.1-0.4-0.3c0-0.4-0.2-0.7-0.8-0.7c-0.7,0-0.8,0.5-0.8,1.2v1.4c0,0.8,0,1.2,0.8,1.2c0.5,0,0.7-0.3,0.8-0.7
		c0-0.2,0.2-0.3,0.4-0.3l1.1,0.2c0.1,0,0.2,0.1,0.2,0.3c0,0.8-0.4,2.2-2.5,2.2c-2.4,0-2.5-1.8-2.5-2.4V42.9z"/>
	<path fill="#1D1D1B" d="M394.2,45.4c0,0.7-0.1,2.4-2.5,2.4c-2.4,0-2.5-1.8-2.5-2.4v-2.5c0-0.7,0.1-2.4,2.5-2.4
		c2.4,0,2.5,1.8,2.5,2.4V45.4z M392.5,43.4c0-0.8,0-1.2-0.8-1.2c-0.7,0-0.8,0.5-0.8,1.2v1.4c0,0.8,0,1.2,0.8,1.2
		c0.7,0,0.8-0.5,0.8-1.2V43.4z"/>
	<path fill="#1D1D1B" d="M396.5,45.9c0.2,0,0.3,0.1,0.3,0.3v1.1c0,0.2-0.1,0.3-0.3,0.3h-1.1c-0.2,0-0.3-0.1-0.3-0.3v-1.1
		c0-0.2,0.1-0.3,0.3-0.3H396.5z"/>
</g>
</svg>
