<?xml version="1.0" encoding="utf-8"?>
<!-- Generator: Adobe Illustrator 14.0.0, SVG Export Plug-In . SVG Version: 6.00 Build 43363)  -->
<!DOCTYPE svg PUBLIC "-//W3C//DTD SVG 1.1//EN" "http://www.w3.org/Graphics/SVG/1.1/DTD/svg11.dtd">
<svg version="1.1" id="Layer_1" xmlns="http://www.w3.org/2000/svg" xmlns:xlink="http://www.w3.org/1999/xlink" x="0px" y="0px"
	 width="45.554px" height="25px" viewBox="0 0 45.554 25" enable-background="new 0 0 45.554 25" xml:space="preserve">
<g>
	<path fill="#FFFFFF" d="M44.035,24.952L36.51,14.279h-5.928v10.673h-1.187V0.234h8.522c4.003,0,7.302,2.483,7.302,7.003
		c0,4.521-3.299,7.042-7.302,7.042l7.636,10.673H44.035z M43.922,7.238c0-3.409-2.371-5.892-6.004-5.892h-7.336v11.822h7.336
		C41.551,13.168,43.922,10.648,43.922,7.238z"/>
</g>
<g>
	<path fill="#FFFFFF" d="M20.002,24.933c-2.585,0-4.747-2.161-4.747-4.746v-3.434H9.45v3.434c0,2.585-2.161,4.746-4.746,4.746
		C2.119,24.933,0,22.771,0,20.187s2.119-4.703,4.704-4.703h3.39V9.677H4.746C2.161,9.677,0,7.515,0,4.93s2.161-4.704,4.746-4.704
		S9.45,2.345,9.45,4.93v3.475h5.806V4.93c0-2.585,2.161-4.704,4.747-4.704c2.584,0,4.703,2.119,4.703,4.704
		s-2.119,4.747-4.703,4.747h-3.39v5.806h3.39c2.584,0,4.703,2.118,4.703,4.703S22.586,24.933,20.002,24.933z M8.094,4.93
		c0-1.907-1.441-3.433-3.348-3.433c-1.907,0-3.39,1.526-3.39,3.433c0,1.907,1.483,3.475,3.39,3.475h3.348V4.93z M8.094,16.753H4.661
		c-1.907,0-3.305,1.526-3.305,3.434c0,1.906,1.441,3.476,3.348,3.476s3.39-1.569,3.39-3.476V16.753z M15.256,15.483V9.677H9.45
		v5.806H15.256z M20.002,1.498c-1.908,0-3.39,1.526-3.39,3.433v3.475h3.432c1.907,0,3.305-1.567,3.305-3.475
		C23.349,3.023,21.909,1.498,20.002,1.498z M20.044,16.753h-3.432v3.434c0,1.906,1.482,3.476,3.39,3.476
		c1.907,0,3.347-1.569,3.347-3.476C23.349,18.279,21.951,16.753,20.044,16.753z"/>
</g>
</svg>
