<?xml version="1.0" encoding="utf-8"?>
<!-- Generator: Adobe Illustrator 17.1.0, SVG Export Plug-In . SVG Version: 6.00 Build 0)  -->
<!DOCTYPE svg PUBLIC "-//W3C//DTD SVG 1.1//EN" "http://www.w3.org/Graphics/SVG/1.1/DTD/svg11.dtd">
<svg version="1.1" id="Layer_1" xmlns="http://www.w3.org/2000/svg" xmlns:xlink="http://www.w3.org/1999/xlink" x="0px" y="0px"
	 viewBox="0 0 47.41 25" enable-background="new 0 0 47.41 25" xml:space="preserve">
<g>
	<path fill="#FFFFFF" d="M20.002,24.933c-2.586,0-4.747-2.161-4.747-4.746v-3.434H9.45v3.434c0,2.585-2.161,4.746-4.746,4.746
		C2.119,24.933,0,22.771,0,20.187s2.119-4.703,4.704-4.703h3.39V9.677H4.746C2.161,9.677,0,7.515,0,4.93
		c0-2.585,2.161-4.704,4.746-4.704S9.45,2.345,9.45,4.93v3.475h5.806V4.93c0-2.585,2.161-4.704,4.747-4.704
		c2.584,0,4.703,2.119,4.703,4.704c0,2.585-2.119,4.747-4.703,4.747h-3.39v5.806h3.39c2.584,0,4.703,2.118,4.703,4.703
		S22.586,24.933,20.002,24.933z M8.094,4.93c0-1.907-1.441-3.433-3.348-3.433c-1.907,0-3.39,1.526-3.39,3.433
		c0,1.907,1.483,3.475,3.39,3.475h3.348V4.93z M8.094,16.753H4.661c-1.907,0-3.305,1.526-3.305,3.434
		c0,1.906,1.441,3.476,3.348,3.476c1.907,0,3.39-1.569,3.39-3.476V16.753z M15.256,15.483V9.677H9.45v5.806H15.256z M20.002,1.498
		c-1.908,0-3.39,1.526-3.39,3.433v3.475h3.432c1.907,0,3.305-1.567,3.305-3.475C23.349,3.023,21.909,1.498,20.002,1.498z
		 M20.044,16.753h-3.432v3.434c0,1.906,1.483,3.476,3.39,3.476c1.907,0,3.347-1.569,3.347-3.476
		C23.349,18.279,21.951,16.753,20.044,16.753z"/>
</g>
<g>
	<g>
		<path fill="#FFFFFF" d="M37.908,15.032l5.97,7.186c0.874,1.103,1.711,1.559,2.965,1.559h0.379v0.266
			c0,0.608-0.456,0.837-0.988,0.837c-1.406,0-2.167-0.456-3.307-1.901l-6.197-7.605h-5.818v9.391h-1.14V0.926
			c0-0.608,0.229-0.647,1.14-0.647h5.704c4.068,0,8.327,1.901,8.327,7.148C44.942,12.066,41.557,14.424,37.908,15.032z
			 M36.425,1.382h-5.513v12.889h5.21c3.612,0,7.603-2.054,7.603-6.73C43.725,2.903,40,1.382,36.425,1.382z"/>
		<path fill="#FFFFFF" d="M46.234,25.005c-1.432,0-2.227-0.455-3.405-1.949l-6.159-7.557h-5.633v9.392h-1.391V0.926
			c0-0.741,0.388-0.772,1.266-0.772h5.703c4.086,0,8.452,1.911,8.452,7.273c0,4.028-2.584,6.89-6.926,7.69l5.832,7.02
			c0.864,1.09,1.669,1.514,2.87,1.514h0.504v0.392C47.347,24.646,46.931,25.005,46.234,25.005z M30.787,15.249h6.002l0.037,0.046
			l6.197,7.604c1.137,1.439,1.856,1.855,3.211,1.855c0.322,0,0.863-0.093,0.863-0.712v-0.142h-0.254
			c-1.271,0-2.159-0.465-3.063-1.605l-6.107-7.352l0.215-0.035c4.339-0.724,6.93-3.521,6.93-7.481c0-5.178-4.237-7.023-8.202-7.023
			h-5.703c-0.931,0-1.016,0.044-1.016,0.522v23.714h0.891V15.249z M36.122,14.396h-5.335V1.257h5.638
			c4.649,0,7.425,2.349,7.425,6.284C43.849,12.251,39.843,14.396,36.122,14.396z M31.037,14.146h5.085
			c3.602,0,7.478-2.067,7.478-6.605c0-1.416-0.518-6.034-7.175-6.034h-5.388V14.146z"/>
	</g>
</g>
</svg>
